<?xml version="1.0" encoding="utf-8"?>
<!-- Generator: Adobe Illustrator 24.3.0, SVG Export Plug-In . SVG Version: 6.00 Build 0)  -->
<svg version="1.1" id="Layer_1" xmlns="http://www.w3.org/2000/svg" xmlns:xlink="http://www.w3.org/1999/xlink" x="0px" y="0px"
	 viewBox="0 0 455.2 139.5" style="enable-background:new 0 0 455.2 139.5;" xml:space="preserve">
<style type="text/css">
	.st0{fill-rule:evenodd;clip-rule:evenodd;fill:#FFFFFF;}
</style>
<path id="edna._type" class="st0" d="M97.4,94.8c-3.9,10.9-9.5,19.7-16.7,26.4c-6.6,6.5-15.6,10.2-24.9,10.1
	c-10,0-18.3-2.6-24.7-7.7c-6.4-5.1-11.2-11.9-13.8-19.7c-0.5-4.2,0.7-7.4,3.7-9.7c2.9-2.3,7.3-4.1,13.2-5.6
	c2.6-0.6,6.8-1.4,12.5-2.3c7.8-1.3,14-2.6,18.8-3.9c4.4-1.1,8.6-3.2,12.1-6.2c3.3-2.8,4.9-6.7,4.9-11.6c0-3.8-1.6-7.2-4.9-10.2
	c-3.8-3.3-8.3-5.6-13.1-7c-5.7-1.7-11.7-2.6-17.6-2.5c-9.8,0-18.2,2.3-25.2,6.8c-7,4.5-12.6,10.8-16.1,18.3
	C1.8,77.9-0.1,86.4,0,95.1c-0.1,7.7,2,15.4,5.9,22c3.9,6.6,9.5,12.1,16.2,15.8c7.1,3.9,15.1,5.9,23.2,5.8c12.5,0,23.4-3.9,32.5-11.6
	c9.1-7.8,16.1-18.4,21-31.9c0.2-0.6,0.1-1-0.3-1.2C98.1,94,97.6,94.3,97.4,94.8C97.4,94.8,97.4,94.8,97.4,94.8L97.4,94.8L97.4,94.8z
	 M46.9,46.6c7.3,0,12.5,1.8,15.8,5.3c3.3,3.7,5,8.4,4.8,13.3c0,4.7-1.2,8.3-3.7,10.9c-2.5,2.7-5.7,4.7-9.1,5.8
	c-4.7,1.5-9.4,2.7-14.2,3.7L34,87.1c-4.3,1-8.5,2.6-12.4,4.7c-2.9,1.6-5,4.5-5.6,7.8c-1-4.1-1.6-8.3-1.6-12.5
	c0-8.7,1.4-16.1,4.3-22.2c2.5-5.6,6.5-10.4,11.6-13.7C35.4,48.1,41.1,46.5,46.9,46.6L46.9,46.6L46.9,46.6z M128,138.8
	c7.9,0,15.2-3.3,21.9-10c6.7-6.7,12.6-16.1,17.5-28.3c4.9-12.2,8.5-26.4,10.7-42.8h1.4l-2.7,30.1v29.7c0,6.4,1.5,11.6,4.5,15.5
	c3,3.9,7.4,5.8,13.3,5.8c2.7,0.1,5.4-0.6,7.7-2.2c2.1-1.6,3.8-3.7,5-6.1c0.2-0.3,0.2-0.8-0.2-1c0,0-0.1,0-0.1-0.1
	c-0.4-0.2-0.9-0.1-1.1,0.3c0,0,0,0,0,0.1c-2.1,4.8-5.3,7.2-9.5,7.2c-2,0-3.5-1.5-4.3-4.5c-0.9-3.6-1.3-7.4-1.3-11.1V0.9
	c0-0.3-0.1-0.6-0.4-0.8c-0.2-0.2-0.5-0.1-0.7,0.1c0,0,0,0,0,0c-4.1,2.1-8.4,4-12.8,5.6c-5.4,2-10,3.6-13.7,4.7
	c-0.4,0-0.7,0.3-0.7,0.7c0,0.4,0.2,0.5,0.7,0.4c5.3-0.4,8.8,0.7,10.7,3.3c1.9,2.6,2.9,6.5,2.9,11.7v27.4c-9.4-6-19-9-28.7-8.9
	c-8.8-0.1-17.5,2.1-25.2,6.4c-7.7,4.4-14.1,10.9-18.3,18.8c-4.5,8.2-6.8,18.1-6.8,29.5c0,13.6,2.9,23.5,8.6,29.7
	C112,135.6,119.9,139,128,138.8L128,138.8L128,138.8z M132.7,133.6c-6.2,0-10.9-3.8-14.1-11.5s-4.8-16.7-4.8-27
	c-0.1-8.6,1.4-17.1,4.4-25.1c2.9-7.4,7-13.2,12.1-17.3c4.8-4,10.8-6.2,17-6.2c4.3,0,8.6,0.5,12.7,1.6c3.8,1,7.5,2.5,11,4.4
	c3.3,1.8,5.2,2.9,5.6,3.1v1.8c-1.6,13-4.6,25.7-9,38.1c-4.2,11.6-9.4,20.9-15.5,27.8S139.5,133.6,132.7,133.6L132.7,133.6
	L132.7,133.6z M335,136.3c-4.4,0-7.6-0.6-9.7-1.8c-2-1.1-3.5-3-4.2-5.2c-1.1-3.9-1.9-7.8-2.4-11.8l-5-32.2
	c-1.4-9.5-3.2-17.1-5.3-22.7c-2.1-5.6-5-9.8-8.7-12.6c-3.7-2.9-8.7-4.3-14.9-4.3c-6.4,0-12.6,2.8-18.4,8.3s-10.9,14.3-15.2,26.3
	c-4.4,12-7.6,27.3-9.6,45.9h-0.9l2.9-50.3l0.2-30.8c-0.2-0.3-0.6-0.4-0.9-0.1c-0.1,0-0.1,0.1-0.1,0.1c-3.5,1.8-7.1,3.3-10.9,4.3
	c-4.6,1.4-9.4,2.5-14.1,3.4c-0.4,0.3-0.5,0.9-0.2,1.2c0.1,0.1,0.1,0.1,0.2,0.2c4.3,0,7.4,1.8,9.2,5.5s2.8,8.9,2.8,15.8v41.7
	c0.1,3.9-0.1,7.8-0.7,11.7c-0.4,2.3-1.7,4.3-3.7,5.5c-2,1.2-5.2,1.8-9.6,1.8c-0.3,0-0.7,0.2-0.7,0.6c0,0.3,0.2,0.7,0.6,0.7
	c0.1,0,0.1,0,0.2,0c4.1,0,7.6-0.1,10.7-0.4c1.4-0.1,2.7-0.2,4.1-0.2h12.2c1.4,0,2.8,0,4.1,0.2c3.1,0.2,6.7,0.4,10.7,0.4
	c0.6,0,0.9-0.2,0.9-0.6c0-0.4-0.3-0.6-0.9-0.6c-5.4-0.1-9-1.1-10.7-2.9c-1.8-1.8-2.8-5-3-9.7c1.2-13,3.6-25.9,7.4-38.4
	c3.5-11.2,7.8-19.8,12.7-26.1c5-6.2,10.3-9.3,16-9.3c4.9,0,8.8,2.3,11.6,7c2.9,4.7,5.3,13.2,7.3,25.6l5.6,34.9
	c0.5,3.1,0.9,6.3,1.1,9.5c0,3.3-0.9,5.7-2.7,7.1s-5.1,2.1-10,2.2c-0.3,0-0.7,0.2-0.7,0.6c0,0.3,0.2,0.7,0.6,0.7c0.1,0,0.1,0,0.2,0
	c4.1,0,7.6-0.1,10.7-0.4c1.4-0.1,2.7-0.2,4.1-0.2h12.4c1.4,0,2.8,0,4.1,0.2c3.1,0.2,6.7,0.4,10.7,0.4c0.6,0,0.9-0.2,0.9-0.6
	C335.9,136.5,335.6,136.3,335,136.3L335,136.3L335,136.3z M445.9,127.4c-1.4,2.2-3,4.3-4.8,6.3c-1.2,1.3-3,2-4.7,2
	c-1.8,0-3.3-1-4.5-3.1c-1.3-2.3-2.1-4.8-2.5-7.3l-8.9-50.3c-2.2-11.9-6.1-19.9-11.9-24c-5.8-4.1-13.2-6.1-22.1-6.1
	c-9.1,0-16.8,1.9-23.3,5.6c-6.8,4.1-12.5,9.8-16.6,16.6c-4.6,7.3-8.9,16.7-13,28.3c-0.1,0.2-0.1,0.5,0,0.7c0.1,0.3,0.4,0.4,0.7,0.4
	c0.4,0,0.7-0.2,0.9-0.5c5.5-16.1,12-28.3,19.4-36.7c7.5-8.3,17.2-12.5,29.3-12.5c4.7,0,8.9,2.1,12.7,6.3c-9.4,1.8-18.2,5.6-26,11.1
	c-8.1,5.6-14.9,12.9-20,21.4c-5,8.2-7.6,17.6-7.6,27.1c-0.1,4.8,1.2,9.5,3.6,13.7c2.4,4.1,5.8,7.5,9.9,9.8c4.3,2.4,9.1,3.6,14.1,3.6
	c5.4,0,11-2.2,16.7-6.6c6.1-4.8,11.2-10.8,14.9-17.6c4-7.1,6.5-15,7.2-23.2l5.9,32.2c0.7,3.8,2.4,7.4,4.9,10.4
	c2.5,2.9,6.2,4.3,11.2,4.3c3.8,0,6.9-0.9,9.1-2.7c2.7-2.3,4.9-5.1,6.6-8.2c0.2-0.4,0-0.8-0.4-1c0,0,0,0,0,0
	C446.5,126.9,446.1,127,445.9,127.4C445.9,127.3,445.9,127.3,445.9,127.4L445.9,127.4L445.9,127.4z M378.7,133.4
	c-5.5,0.2-10.7-2-14.5-6c-3.8-4-5.7-10.2-5.7-18.7c0-12,2.9-23.9,8.6-34.5c5.7-10.8,15.9-17.5,30.6-20.2c3.9,4.9,6.7,11.2,8.2,19
	l2.3,12.7c-0.4,14.9-6,29.1-15.8,40.3C387.8,131,383.3,133.4,378.7,133.4L378.7,133.4L378.7,133.4z M445,126.5c2.8,0.1,5.4-1,7.3-3
	c1.8-1.8,2.9-4.3,2.9-6.9c0-2.6-1-5.2-3-7c-1.9-1.9-4.5-2.9-7.2-2.9c-2.8-0.1-5.5,0.9-7.5,2.9c-1.9,1.8-2.9,4.4-2.9,7
	c0,2.6,1,5.2,2.9,7C439.5,125.5,442.2,126.6,445,126.5L445,126.5z"/>
</svg>
