<svg xmlns="http://www.w3.org/2000/svg" width="455.19" height="139.53" viewBox="0 0 455.19 139.53">
  <metadata><?xpacket begin="﻿" id="W5M0MpCehiHzreSzNTczkc9d"?>
<x:xmpmeta xmlns:x="adobe:ns:meta/" x:xmptk="Adobe XMP Core 5.6-c140 79.160451, 2017/05/06-01:08:21        ">
   <rdf:RDF xmlns:rdf="http://www.w3.org/1999/02/22-rdf-syntax-ns#">
      <rdf:Description rdf:about=""/>
   </rdf:RDF>
</x:xmpmeta>
                                                                                                    
                                                                                                    
                                                                                                    
                                                                                                    
                                                                                                    
                                                                                                    
                                                                                                    
                                                                                                    
                                                                                                    
                                                                                                    
                                                                                                    
                                                                                                    
                                                                                                    
                                                                                                    
                                                                                                    
                                                                                                    
                                                                                                    
                                                                                                    
                                                                                                    
                                                                                                    
                           
<?xpacket end="w"?></metadata>
<defs>
    <style>
      .cls-1 {
        fill: #b82a2a;
        fill-rule: evenodd;
      }
    </style>
  </defs>
  <path id="edna._type" data-name="edna. type" class="cls-1" d="M710.677,1921.64q-5.908,16.29-16.653,26.41a35.189,35.189,0,0,1-24.89,10.12q-15.042,0-24.711-7.7a42.063,42.063,0,0,1-13.788-19.7q-0.719-6.27,3.671-9.67t13.161-5.55q3.936-.9,12.535-2.33,11.637-1.965,18.8-3.94a30.976,30.976,0,0,0,12.087-6.17q4.923-4.215,4.924-11.55,0-5.73-4.924-10.21a34.057,34.057,0,0,0-13.072-6.98,59.434,59.434,0,0,0-17.638-2.51q-14.685,0-25.249,6.8a44.241,44.241,0,0,0-16.116,18.27,56.746,56.746,0,0,0-5.551,25.07,42.56,42.56,0,0,0,5.909,22.02,43,43,0,0,0,16.206,15.85,46.29,46.29,0,0,0,23.189,5.82q18.8,0,32.5-11.64t21.04-31.87q0.357-.9-0.269-1.17a0.932,0.932,0,0,0-1.164.63h0Zm-50.5-48.17q10.92,0,15.758,5.28a19,19,0,0,1,4.834,13.34q0,6.99-3.671,10.93a22.2,22.2,0,0,1-9.132,5.82,119.006,119.006,0,0,1-14.236,3.67l-6.446,1.43a47.2,47.2,0,0,0-12.356,4.74,11.05,11.05,0,0,0-5.551,7.79,51.525,51.525,0,0,1-1.611-12.53q0-13.065,4.3-22.21a31.21,31.21,0,0,1,11.64-13.69,30.5,30.5,0,0,1,16.474-4.57h0Zm81.116,92.22q11.819,0,21.936-10.03t17.459-28.29q7.341-18.27,10.744-42.8h1.433l-2.686,30.09v29.72q0,9.675,4.476,15.49t13.251,5.82a12.558,12.558,0,0,0,7.7-2.15,18.514,18.514,0,0,0,5.014-6.09,0.716,0.716,0,0,0-.269-1.07,0.829,0.829,0,0,0-1.164.36q-3.222,7.155-9.49,7.16-3.047,0-4.3-4.48a41.769,41.769,0,0,1-1.253-11.1V1827.81a0.954,0.954,0,0,0-.358-0.81,0.5,0.5,0,0,0-.717.09,107.6,107.6,0,0,1-12.8,5.55q-8.149,3.045-13.7,4.66a0.763,0.763,0,0,0-.716.71q0,0.54.716,0.36,7.878-.54,10.744,3.32,2.863,3.84,2.866,11.72v27.4q-14.148-8.955-28.651-8.95a50.682,50.682,0,0,0-25.249,6.44,46.991,46.991,0,0,0-18.264,18.81q-6.808,12.345-6.8,29.54,0,20.415,8.595,29.73a28.018,28.018,0,0,0,21.488,9.31h0Zm4.656-5.19q-9.312,0-14.146-11.46T726.972,1922a67.727,67.727,0,0,1,4.387-25.07q4.386-11.1,12.087-17.28a26.542,26.542,0,0,1,17.011-6.18,49.687,49.687,0,0,1,12.714,1.61,46.953,46.953,0,0,1,11.013,4.39q4.923,2.775,5.64,3.13v1.79a178.339,178.339,0,0,1-9.042,38.05q-6.359,17.46-15.49,27.76t-19.339,10.3h0Zm202.345,2.68c-4.418,0-7.641-.59-9.67-1.79a9.3,9.3,0,0,1-4.208-5.19A75.7,75.7,0,0,1,932,1944.38l-5.014-32.23q-2.149-14.325-5.283-22.65t-8.685-12.63q-5.551-4.29-14.862-4.3-9.669,0-18.354,8.33t-15.221,26.32q-6.538,18-9.58,45.93h-0.895l2.865-50.31,0.179-30.8a0.67,0.67,0,0,0-1.075,0,54.571,54.571,0,0,1-10.923,4.29,127.212,127.212,0,0,1-14.146,3.41,0.893,0.893,0,0,0,0,1.43q6.447,0,9.222,5.46t2.775,15.85v41.72a68.236,68.236,0,0,1-.716,11.73,7.793,7.793,0,0,1-3.671,5.46c-1.969,1.2-5.165,1.79-9.58,1.79a0.635,0.635,0,1,0,0,1.26q6.086,0,10.744-.36a35.425,35.425,0,0,1,4.119-.18h12.176a35.461,35.461,0,0,1,4.119.18q4.654,0.36,10.744.36,0.894,0,.895-0.63t-0.895-.63q-8.058-.18-10.744-2.86t-3.044-9.67a190.463,190.463,0,0,1,7.431-38.41q5.28-16.74,12.714-26.06,7.428-9.3,16.026-9.31,7.341,0,11.639,6.99t7.342,25.6l5.551,34.92a93.85,93.85,0,0,1,1.075,9.49q0,5.01-2.686,7.07t-10.028,2.24a0.635,0.635,0,1,0,0,1.26q6.086,0,10.744-.36a35.418,35.418,0,0,1,4.118-.18h12.356a35.461,35.461,0,0,1,4.119.18q4.655,0.36,10.744.36,0.894,0,.895-0.63t-0.895-.63h0Zm110.842-8.95a48.968,48.968,0,0,1-4.75,6.27,6.276,6.276,0,0,1-4.74,1.97c-1.79,0-3.29-1.02-4.48-3.05a21.372,21.372,0,0,1-2.51-7.34l-8.95-50.32q-3.225-17.9-11.91-23.99t-22.112-6.09q-13.611,0-23.279,5.64a48.782,48.782,0,0,0-16.563,16.56q-6.9,10.935-12.983,28.3a0.762,0.762,0,0,0,0,.71,0.724,0.724,0,0,0,.717.36,1.05,1.05,0,0,0,.895-0.54q8.235-24.165,19.429-36.71,11.189-12.525,29.277-12.53,6.988,0,12.709,6.27a66.167,66.167,0,0,0-25.96,11.1,68.289,68.289,0,0,0-19.966,21.4,52.233,52.233,0,0,0-7.61,27.13,26.76,26.76,0,0,0,3.581,13.69,25.949,25.949,0,0,0,9.939,9.76,28.113,28.113,0,0,0,14.056,3.59q8.058,0,16.74-6.63a56.683,56.683,0,0,0,14.87-17.64,57.383,57.383,0,0,0,7.25-23.19l5.91,32.23a22.631,22.631,0,0,0,4.92,10.39q3.675,4.305,11.19,4.3,5.73,0,9.14-2.69a28.938,28.938,0,0,0,6.62-8.23,0.755,0.755,0,0,0-.45-0.99,0.712,0.712,0,0,0-.98.27h0Zm-67.152,6.09a19.2,19.2,0,0,1-14.5-6q-5.733-6-5.73-18.71a72.484,72.484,0,0,1,8.6-34.47q8.595-16.215,30.621-20.15,5.91,7.35,8.24,18.98l2.32,12.72a63.575,63.575,0,0,1-15.84,40.29q-6.9,7.335-13.7,7.34h0Zm66.252-6.95a9.787,9.787,0,0,0,7.34-2.96,9.584,9.584,0,0,0,2.87-6.89,9.348,9.348,0,0,0-2.96-6.98,10.011,10.011,0,0,0-7.25-2.87,10.177,10.177,0,0,0-7.52,2.87,9.484,9.484,0,0,0-2.86,6.98,9.324,9.324,0,0,0,2.95,6.98,10.253,10.253,0,0,0,7.43,2.87h0Z" transform="translate(-613.25 -1826.88)"/>
</svg>
